<svg width="526" height="128" viewBox="0 0 526 128" fill="none" xmlns="http://www.w3.org/2000/svg">
<path d="M166.032 11.904C166.459 11.904 166.757 12.16 166.928 12.672C167.099 13.0987 167.056 13.4827 166.8 13.824C162.448 18.0907 158.565 22.8693 155.152 28.16C151.824 33.3653 149.008 38.7413 146.704 44.288C144.4 49.8347 142.651 55.3387 141.456 60.8C140.347 66.176 139.792 71.1253 139.792 75.648C139.792 80.256 140.347 83.8827 141.456 86.528C142.565 89.088 144.101 90.368 146.064 90.368C147.771 90.368 149.392 89.728 150.928 88.448C152.549 87.168 154.128 85.376 155.664 83.072C155.92 82.9013 156.176 82.9013 156.432 83.072C156.773 83.2427 156.901 83.5413 156.816 83.968C155.877 85.4187 154.811 86.8693 153.616 88.32C152.421 89.6853 151.099 90.9653 149.648 92.16C148.283 93.2693 146.875 94.208 145.424 94.976C143.973 95.6587 142.565 96 141.2 96C138.043 96 135.696 94.5493 134.16 91.648C132.624 88.7467 131.856 84.864 131.856 80C131.856 75.9893 132.325 71.552 133.264 66.688C134.203 61.7387 135.568 56.704 137.36 51.584C139.237 46.464 141.456 41.472 144.016 36.608C146.661 31.6587 149.648 27.2213 152.976 23.296C147.856 27.136 142.565 31.744 137.104 37.12C131.643 42.496 126.352 48.256 121.232 54.4C116.197 60.4587 111.461 66.7307 107.024 73.216C102.672 79.7013 99.0453 86.016 96.144 92.16C95.9733 92.5013 95.632 92.928 95.12 93.44C94.608 93.8667 94.0107 94.2933 93.328 94.72C92.6453 95.0613 91.9627 95.36 91.28 95.616C90.5973 95.872 90 96 89.488 96C88.8053 96 88.5493 95.7013 88.72 95.104C90.3413 81.8773 92.6453 70.1013 95.632 59.776C98.704 49.4507 102.288 39.936 106.384 31.232C99.5573 41.472 92.8587 50.6453 86.288 58.752C79.8027 66.7733 73.232 73.5573 66.576 79.104C60.0053 84.5653 53.3067 88.7467 46.48 91.648C39.6533 94.5493 32.6133 96 25.36 96C17.3387 96 11.152 93.9947 6.8 89.984C2.53333 85.9733 0.4 80.6827 0.4 74.112C0.4 69.76 1.63733 65.8773 4.112 62.464C6.58667 58.9653 10 56.4053 14.352 54.784C14.6933 54.6133 14.9067 54.6987 14.992 55.04C15.1627 55.3813 15.1627 55.68 14.992 55.936C12.3467 57.6427 10.4693 59.6053 9.36 61.824C8.336 64.0427 7.824 66.944 7.824 70.528C7.824 73.344 8.29333 76.032 9.232 78.592C10.1707 81.0667 11.536 83.2853 13.328 85.248C15.12 87.1253 17.3813 88.6187 20.112 89.728C22.8427 90.8373 26 91.392 29.584 91.392C37.008 91.392 44.0907 89.6853 50.832 86.272C57.6587 82.8587 64.272 78.208 70.672 72.32C77.1573 66.3467 83.472 59.3493 89.616 51.328C95.8453 43.3067 102.032 34.688 108.176 25.472C102.203 23.424 95.9307 21.7173 89.36 20.352C82.8747 18.9013 76.6027 18.176 70.544 18.176C63.632 18.176 58.2987 20.1387 54.544 24.064C50.7893 27.904 48.4853 33.1093 47.632 39.68C47.4613 40.1067 47.2053 40.2773 46.864 40.192C46.608 40.1067 46.4373 39.8507 46.352 39.424C47.2907 30.976 50.3627 24.5333 55.568 20.096C60.7733 15.6587 67.5573 13.44 75.92 13.44C79.3333 13.44 82.96 13.696 86.8 14.208C90.64 14.6347 94.3947 15.232 98.064 16C101.819 16.768 105.36 17.6213 108.688 18.56C112.101 19.4133 115.088 20.2667 117.648 21.12C117.989 21.0347 118.416 20.9067 118.928 20.736C119.269 20.8213 119.483 21.0347 119.568 21.376C119.653 21.7173 119.611 22.016 119.44 22.272C118.245 22.9547 117.221 23.8933 116.368 25.088C115.6 26.1973 114.747 27.6053 113.808 29.312C109.541 37.9307 106.128 46.9333 103.568 56.32C101.093 65.6213 99.0453 75.0507 97.424 84.608C101.349 77.5253 105.957 70.4427 111.248 63.36C116.624 56.192 122.341 49.408 128.4 43.008C134.459 36.608 140.688 30.72 147.088 25.344C153.573 19.968 159.888 15.488 166.032 11.904ZM196.412 87.936C196.583 87.7653 196.796 87.7653 197.052 87.936C197.308 88.1067 197.393 88.3627 197.308 88.704C195.772 90.9227 194.065 92.7147 192.188 94.08C190.311 95.36 188.519 96 186.812 96C184.849 96 183.569 94.6347 182.972 91.904C182.46 89.088 182.759 85.76 183.868 81.92C181.564 85.5893 179.047 88.7467 176.316 91.392C173.671 93.952 170.855 95.488 167.868 96C165.82 96 164.241 95.0613 163.132 93.184C162.023 91.3067 161.468 89.1307 161.468 86.656C161.468 83.84 162.151 81.0667 163.516 78.336C164.881 75.52 166.673 73.0027 168.892 70.784C171.196 68.5653 173.713 66.7733 176.444 65.408C179.26 63.9573 182.076 63.232 184.892 63.232C187.879 63.232 190.225 63.9573 191.932 65.408C192.785 64.8107 193.852 64.2987 195.132 63.872C196.497 63.4453 197.692 63.232 198.716 63.232C199.057 63.232 199.228 63.4453 199.228 63.872C197.265 66.2613 195.559 68.9067 194.108 71.808C192.743 74.624 191.676 77.3547 190.908 80C190.14 82.56 189.671 84.864 189.5 86.912C189.329 88.96 189.5 90.368 190.012 91.136C190.439 91.648 191.164 91.8187 192.188 91.648C193.212 91.392 194.62 90.1547 196.412 87.936ZM171.836 91.264C172.86 91.264 174.097 90.624 175.548 89.344C177.084 88.064 178.663 86.3573 180.284 84.224C181.905 82.0907 183.484 79.7013 185.02 77.056C186.641 74.4107 188.049 71.7227 189.244 68.992C188.903 67.8827 188.092 66.9867 186.812 66.304C185.617 65.6213 184.209 65.28 182.588 65.28C180.625 65.28 178.791 65.792 177.084 66.816C175.377 67.7547 173.884 69.12 172.604 70.912C171.409 72.6187 170.428 74.7093 169.66 77.184C168.977 79.5733 168.636 82.2187 168.636 85.12C168.636 86.9973 168.935 88.4907 169.532 89.6C170.215 90.7093 170.983 91.264 171.836 91.264ZM229.583 63.232C231.46 63.232 232.954 64.1707 234.063 66.048C235.258 67.84 235.855 69.9733 235.855 72.448C235.855 75.9467 235.13 79.1467 233.679 82.048C232.314 84.864 230.479 87.3387 228.175 89.472C225.871 91.52 223.226 93.1413 220.239 94.336C217.252 95.4453 214.223 96 211.151 96C209.7 96 208.463 95.8293 207.439 95.488C205.988 99.6693 204.666 104.149 203.471 108.928C202.362 113.707 201.807 118.144 201.807 122.24C201.807 124.203 202.746 124.971 204.623 124.544C205.306 124.459 205.946 124.288 206.543 124.032C207.226 123.776 207.866 123.435 208.463 123.008C208.804 123.008 208.975 123.179 208.975 123.52C209.06 123.861 209.018 124.203 208.847 124.544C208.335 124.8 207.567 125.056 206.543 125.312C205.604 125.653 204.58 125.952 203.471 126.208C202.362 126.549 201.252 126.805 200.143 126.976C199.034 127.147 198.095 127.232 197.327 127.232C196.644 127.232 196.09 127.061 195.663 126.72C195.236 126.379 195.023 125.867 195.023 125.184C195.023 120.832 195.748 115.755 197.199 109.952C198.564 104.235 200.356 98.304 202.575 92.16C202.063 91.4773 201.764 90.9227 201.679 90.496C201.594 90.1547 202.234 89.7707 203.599 89.344C204.708 86.272 205.903 83.2 207.183 80.128C208.463 77.056 209.743 74.0267 211.023 71.04C212.644 67.5413 213.37 65.3653 213.199 64.512C213.114 63.6587 212.602 63.488 211.663 64C210.383 64.6827 208.975 65.8773 207.439 67.584C207.268 67.7547 207.055 67.712 206.799 67.456C206.628 67.1147 206.586 66.8587 206.671 66.688C207.268 66.0053 208.036 65.28 208.975 64.512C209.914 63.6587 210.895 62.8907 211.919 62.208C213.028 61.5253 214.095 60.9707 215.119 60.544C216.143 60.032 217.039 59.776 217.807 59.776C218.746 59.776 219.343 60.2027 219.599 61.056C219.94 61.824 219.898 62.6773 219.471 63.616C218.362 66.6027 216.911 69.9733 215.119 73.728C215.972 72.5333 216.954 71.3387 218.063 70.144C219.172 68.864 220.324 67.712 221.519 66.688C222.799 65.664 224.122 64.8533 225.487 64.256C226.852 63.5733 228.218 63.232 229.583 63.232ZM214.351 93.44C216.399 93.44 218.319 93.056 220.111 92.288C221.903 91.4347 223.439 90.24 224.719 88.704C226.084 87.0827 227.151 85.12 227.919 82.816C228.772 80.4267 229.199 77.696 229.199 74.624C229.199 72.576 228.815 70.912 228.047 69.632C227.279 68.352 226.17 67.712 224.719 67.712C222.756 67.712 220.41 69.4613 217.679 72.96C214.948 76.4587 212.431 81.3653 210.127 87.68C209.871 88.3627 209.615 89.088 209.359 89.856C209.103 90.5387 208.847 91.264 208.591 92.032C209.956 92.9707 211.876 93.44 214.351 93.44ZM295.749 0.895996C297.029 0.895996 298.053 1.23733 298.821 1.92C299.674 2.51733 300.229 3.37066 300.485 4.48C300.826 5.504 300.869 6.69866 300.613 8.064C300.442 9.42933 299.973 10.7947 299.205 12.16C299.034 12.3307 298.821 12.3307 298.565 12.16C298.309 11.9893 298.138 11.776 298.053 11.52C298.224 10.496 297.84 9.64266 296.901 8.96C296.048 8.27733 294.682 7.936 292.805 7.936C289.306 7.936 285.765 9.25866 282.181 11.904C278.682 14.464 275.269 17.8773 271.941 22.144C268.613 26.4107 265.498 31.3173 262.597 36.864C259.696 42.4107 257.178 48.128 255.045 54.016C252.912 59.904 251.205 65.7493 249.925 71.552C248.73 77.3547 248.133 82.6453 248.133 87.424C248.133 89.984 248.858 91.264 250.309 91.264C251.333 91.264 252.314 90.8373 253.253 89.984C254.277 89.1307 255.429 87.8507 256.709 86.144C256.965 85.9733 257.178 86.016 257.349 86.272C257.605 86.4427 257.69 86.6987 257.605 87.04C255.898 89.6 253.893 91.7333 251.589 93.44C249.285 95.1467 247.194 96 245.317 96C243.696 96 242.544 95.5307 241.861 94.592C241.264 93.6533 240.965 92.4587 240.965 91.008C240.965 86.9973 241.818 82.0053 243.525 76.032C245.232 69.9733 247.493 63.616 250.309 56.96C253.21 50.2187 256.538 43.52 260.293 36.864C264.048 30.208 267.93 24.2347 271.941 18.944C276.037 13.568 280.133 9.216 284.229 5.88799C288.325 2.56 292.165 0.895996 295.749 0.895996ZM286.711 69.632C286.711 74.496 280.268 77.824 267.383 79.616C267.298 80.4693 267.212 81.3227 267.127 82.176C267.127 83.0293 267.127 83.9253 267.127 84.864C267.127 87.0827 267.639 88.7893 268.663 89.984C269.687 91.1787 271.308 91.776 273.527 91.776C275.148 91.776 276.812 91.3067 278.519 90.368C280.226 89.4293 281.591 88.2347 282.615 86.784C282.956 86.6133 283.212 86.6987 283.383 87.04C283.554 87.296 283.596 87.5947 283.511 87.936C281.804 90.1547 279.628 92.0747 276.983 93.696C274.423 95.232 271.65 96 268.663 96C265.676 96 263.5 95.2747 262.135 93.824C260.855 92.288 260.215 90.1547 260.215 87.424C260.215 84.7787 260.77 82.048 261.879 79.232C262.988 76.3307 264.396 73.6853 266.103 71.296C267.895 68.9067 269.9 66.9867 272.119 65.536C274.423 64 276.727 63.232 279.031 63.232C281.335 63.232 283.17 63.9147 284.535 65.28C285.986 66.56 286.711 68.0107 286.711 69.632ZM275.575 66.56C273.612 66.56 271.906 67.4987 270.455 69.376C269.09 71.168 268.151 73.984 267.639 77.824C271.735 77.3973 274.764 76.6293 276.727 75.52C278.69 74.3253 279.671 72.8747 279.671 71.168C279.671 69.888 279.287 68.8213 278.519 67.968C277.751 67.0293 276.77 66.56 275.575 66.56ZM377.886 13.824C381.811 14.336 385.353 15.3173 388.51 16.768C391.667 18.2187 394.313 20.0533 396.446 22.272C398.665 24.4053 400.371 26.88 401.566 29.696C402.761 32.4267 403.358 35.328 403.358 38.4C403.358 42.4107 402.547 46.1653 400.926 49.664C399.39 53.1627 397.171 56.192 394.27 58.752C391.454 61.312 387.998 63.36 383.902 64.896C379.806 66.3467 375.198 67.072 370.078 67.072C364.531 67.072 359.923 65.7067 356.254 62.976C350.878 74.496 344.563 82.9013 337.31 88.192C330.057 93.3973 322.249 96 313.886 96C306.803 96 301.555 94.2507 298.142 90.752C294.814 87.168 293.15 82.688 293.15 77.312C293.15 75.6907 293.406 74.0693 293.918 72.448C294.515 70.7413 295.326 69.1627 296.35 67.712C297.374 66.176 298.611 64.8107 300.062 63.616C301.598 62.4213 303.305 61.44 305.182 60.672C305.438 60.5013 305.651 60.5013 305.822 60.672C306.078 60.8427 306.121 61.1413 305.95 61.568C303.39 62.9333 301.513 64.768 300.318 67.072C299.123 69.376 298.526 71.8507 298.526 74.496C298.526 76.8 298.91 79.0187 299.678 81.152C300.446 83.2 301.641 84.992 303.262 86.528C304.969 88.064 307.102 89.3013 309.662 90.24C312.222 91.0933 315.294 91.52 318.878 91.52C322.974 91.52 326.558 91.008 329.63 89.984C332.702 88.96 335.475 87.168 337.95 84.608C340.51 82.048 342.814 78.592 344.862 74.24C346.995 69.8027 349.129 64.2133 351.262 57.472C349.726 54.9973 348.659 52.3093 348.062 49.408C348.147 49.0667 348.318 48.8107 348.574 48.64C348.83 48.4693 349.043 48.512 349.214 48.768C349.811 51.2427 350.707 53.4613 351.902 55.424C352.243 54.3147 352.542 53.1627 352.798 51.968C353.139 50.7733 353.481 49.5787 353.822 48.384C355.955 40.7893 358.302 34.4747 360.862 29.44C363.422 24.4053 366.323 20.352 369.566 17.28C369.139 17.1947 368.499 17.152 367.646 17.152C358.601 17.152 351.006 19.2427 344.862 23.424C338.718 27.52 334.409 33.8347 331.934 42.368C331.678 42.624 331.379 42.6667 331.038 42.496C330.782 42.24 330.654 41.8133 330.654 41.216C333.555 32.6827 338.377 25.9413 345.118 20.992C351.945 16.0427 360.905 13.568 371.998 13.568H374.046C377.289 11.4347 380.915 9.856 384.926 8.83199C385.353 8.83199 385.566 9.04533 385.566 9.47199C385.566 9.81333 385.353 10.0693 384.926 10.24C382.366 11.008 380.019 12.2027 377.886 13.824ZM371.486 64.512C375.07 64.512 378.313 63.9147 381.214 62.72C384.115 61.5253 386.59 59.8613 388.638 57.728C390.771 55.5947 392.393 53.12 393.502 50.304C394.611 47.488 395.166 44.4587 395.166 41.216C395.166 35.1573 393.331 30.0373 389.662 25.856C386.078 21.5893 380.915 18.8587 374.174 17.664C369.907 23.04 366.366 31.232 363.55 42.24C362.611 45.7387 361.587 49.0667 360.478 52.224C359.454 55.296 358.345 58.1973 357.15 60.928C360.649 63.3173 365.427 64.512 371.486 64.512ZM450.499 0.895996C451.779 0.895996 452.803 1.23733 453.571 1.92C454.424 2.51733 454.979 3.37066 455.235 4.48C455.576 5.504 455.619 6.69866 455.363 8.064C455.192 9.42933 454.723 10.7947 453.955 12.16C453.784 12.3307 453.571 12.3307 453.315 12.16C453.059 11.9893 452.888 11.776 452.803 11.52C452.974 10.496 452.59 9.64266 451.651 8.96C450.798 8.27733 449.432 7.936 447.555 7.936C444.056 7.936 440.515 9.25866 436.931 11.904C433.432 14.464 430.019 17.8773 426.691 22.144C423.363 26.4107 420.248 31.3173 417.347 36.864C414.446 42.4107 411.928 48.128 409.795 54.016C407.662 59.904 405.955 65.7493 404.675 71.552C403.48 77.3547 402.883 82.6453 402.883 87.424C402.883 89.984 403.608 91.264 405.059 91.264C406.083 91.264 407.064 90.8373 408.003 89.984C409.027 89.1307 410.179 87.8507 411.459 86.144C411.715 85.9733 411.928 86.016 412.099 86.272C412.355 86.4427 412.44 86.6987 412.355 87.04C410.648 89.6 408.643 91.7333 406.339 93.44C404.035 95.1467 401.944 96 400.067 96C398.446 96 397.294 95.5307 396.611 94.592C396.014 93.6533 395.715 92.4587 395.715 91.008C395.715 86.9973 396.568 82.0053 398.275 76.032C399.982 69.9733 402.243 63.616 405.059 56.96C407.96 50.2187 411.288 43.52 415.043 36.864C418.798 30.208 422.68 24.2347 426.691 18.944C430.787 13.568 434.883 9.216 438.979 5.88799C443.075 2.56 446.915 0.895996 450.499 0.895996ZM450.037 87.936C450.208 87.7653 450.421 87.7653 450.677 87.936C450.933 88.1067 451.018 88.3627 450.933 88.704C449.397 90.9227 447.69 92.7147 445.813 94.08C443.936 95.36 442.144 96 440.437 96C438.474 96 437.194 94.6347 436.597 91.904C436.085 89.088 436.384 85.76 437.493 81.92C435.189 85.5893 432.672 88.7467 429.941 91.392C427.296 93.952 424.48 95.488 421.493 96C419.445 96 417.866 95.0613 416.757 93.184C415.648 91.3067 415.093 89.1307 415.093 86.656C415.093 83.84 415.776 81.0667 417.141 78.336C418.506 75.52 420.298 73.0027 422.517 70.784C424.821 68.5653 427.338 66.7733 430.069 65.408C432.885 63.9573 435.701 63.232 438.517 63.232C441.504 63.232 443.85 63.9573 445.557 65.408C446.41 64.8107 447.477 64.2987 448.757 63.872C450.122 63.4453 451.317 63.232 452.341 63.232C452.682 63.232 452.853 63.4453 452.853 63.872C450.89 66.2613 449.184 68.9067 447.733 71.808C446.368 74.624 445.301 77.3547 444.533 80C443.765 82.56 443.296 84.864 443.125 86.912C442.954 88.96 443.125 90.368 443.637 91.136C444.064 91.648 444.789 91.8187 445.813 91.648C446.837 91.392 448.245 90.1547 450.037 87.936ZM425.461 91.264C426.485 91.264 427.722 90.624 429.173 89.344C430.709 88.064 432.288 86.3573 433.909 84.224C435.53 82.0907 437.109 79.7013 438.645 77.056C440.266 74.4107 441.674 71.7227 442.869 68.992C442.528 67.8827 441.717 66.9867 440.437 66.304C439.242 65.6213 437.834 65.28 436.213 65.28C434.25 65.28 432.416 65.792 430.709 66.816C429.002 67.7547 427.509 69.12 426.229 70.912C425.034 72.6187 424.053 74.7093 423.285 77.184C422.602 79.5733 422.261 82.2187 422.261 85.12C422.261 86.9973 422.56 88.4907 423.157 89.6C423.84 90.7093 424.608 91.264 425.461 91.264ZM485.896 66.944C486.237 66.0907 487.176 65.28 488.712 64.512C490.248 63.6587 491.613 63.232 492.808 63.232C493.576 63.232 493.875 63.5307 493.704 64.128C491.827 69.4187 489.949 74.5813 488.072 79.616C486.28 84.5653 484.403 89.6853 482.44 94.976C478.173 105.984 472.84 114.091 466.44 119.296C460.125 124.501 453.384 127.104 446.216 127.104C441.267 127.104 437.384 125.952 434.568 123.648C431.752 121.344 430.344 118.571 430.344 115.328C430.344 113.451 430.984 111.616 432.264 109.824C433.544 108.032 435.293 106.752 437.512 105.984C437.853 105.899 438.109 105.984 438.28 106.24C438.451 106.496 438.451 106.752 438.28 107.008C436.915 108.459 436.232 110.293 436.232 112.512C436.232 116.096 437.341 118.997 439.56 121.216C441.779 123.435 444.979 124.544 449.16 124.544C452.147 124.544 454.877 124.075 457.352 123.136C459.827 122.197 462.131 120.533 464.264 118.144C466.483 115.755 468.616 112.555 470.664 108.544C472.712 104.533 474.803 99.4987 476.936 93.44C477.96 90.624 478.856 88.1067 479.624 85.888C480.477 83.6693 481.331 81.2373 482.184 78.592C480.563 81.152 478.899 83.4987 477.192 85.632C475.485 87.7653 473.736 89.6 471.944 91.136C470.237 92.672 468.573 93.8667 466.952 94.72C465.331 95.5733 463.837 96 462.472 96C460.765 96 459.528 95.488 458.76 94.464C457.992 93.44 457.608 92.032 457.608 90.24C457.608 87.2533 458.205 83.84 459.4 80C460.68 76.0747 462.387 72.32 464.52 68.736C463.581 69.3333 462.728 69.888 461.96 70.4C461.192 70.912 460.467 71.5093 459.784 72.192C459.528 72.3627 459.272 72.32 459.016 72.064C458.845 71.7227 458.845 71.424 459.016 71.168C459.613 70.5707 460.424 69.9307 461.448 69.248C462.472 68.48 463.581 67.7547 464.776 67.072C465.971 66.3893 467.165 65.7067 468.36 65.024C469.64 64.3413 470.877 63.744 472.072 63.232C472.925 63.232 473.267 63.616 473.096 64.384C471.731 66.0907 470.493 68.0107 469.384 70.144C468.36 72.192 467.464 74.2827 466.696 76.416C465.928 78.464 465.331 80.512 464.904 82.56C464.563 84.608 464.392 86.4427 464.392 88.064C464.392 90.4533 465.16 91.648 466.696 91.648C468.061 91.648 469.683 90.7947 471.56 89.088C473.437 87.3813 475.272 85.2907 477.064 82.816C478.941 80.256 480.648 77.568 482.184 74.752C483.805 71.8507 485.043 69.248 485.896 66.944ZM501.189 87.424C503.152 88.1067 505.157 88.704 507.205 89.216C509.338 89.6427 511.429 89.856 513.477 89.856C515.61 89.856 517.274 89.344 518.469 88.32C519.749 87.296 520.73 85.888 521.413 84.096C521.669 83.84 521.925 83.7973 522.181 83.968C522.522 84.1387 522.65 84.3947 522.565 84.736C519.749 92.2453 515.61 96 510.149 96C508.357 96 506.522 95.7867 504.645 95.36C502.853 94.9333 501.018 94.3787 499.141 93.696C498.032 93.3547 497.05 93.3547 496.197 93.696C495.344 93.952 494.234 94.72 492.869 96C492.442 96 492.144 95.7867 491.973 95.36C491.717 94.9333 491.674 94.5067 491.845 94.08C493.722 92.2027 495.728 90.24 497.861 88.192C499.994 86.0587 502.128 83.968 504.261 81.92C506.394 79.872 508.485 77.8667 510.533 75.904C512.581 73.9413 514.458 72.1493 516.165 70.528C514.202 70.1013 511.984 69.76 509.509 69.504C507.12 69.1627 505.114 68.992 503.493 68.992C501.018 68.992 499.312 70.3573 498.373 73.088C498.202 73.344 497.946 73.3867 497.605 73.216C497.264 73.0453 497.093 72.832 497.093 72.576C498.202 69.504 499.482 67.2 500.933 65.664C502.384 64.0427 504.389 63.232 506.949 63.232C508.912 63.232 511.002 63.4453 513.221 63.872C515.525 64.2987 517.274 64.64 518.469 64.896C519.408 65.152 520.218 65.152 520.901 64.896C521.669 64.64 522.394 64.2133 523.077 63.616C523.333 63.36 523.717 63.232 524.229 63.232C525.253 63.232 525.68 63.616 525.509 64.384C520.816 68.736 516.464 72.7893 512.453 76.544C508.528 80.2133 504.773 83.84 501.189 87.424Z" fill="#EFCD45"/>
</svg>
