<svg width="426" height="120" viewBox="0 0 426 120" fill="none" xmlns="http://www.w3.org/2000/svg">
<path d="M148.691 11.28C149.091 11.28 149.371 11.48 149.531 11.88C149.691 12.28 149.651 12.64 149.411 12.96C145.571 16.32 142.091 20.36 138.971 25.08C135.931 29.72 133.291 34.64 131.051 39.84C128.811 45.04 127.091 50.36 125.891 55.8C124.691 61.16 124.091 66.2 124.091 70.92C124.091 75.24 124.611 78.64 125.651 81.12C126.691 83.52 128.131 84.72 129.971 84.72C133.011 84.72 136.011 82.48 138.971 78C139.211 77.76 139.451 77.76 139.691 78C140.011 78.16 140.131 78.4 140.051 78.72C139.171 80.08 138.171 81.44 137.051 82.8C136.011 84.08 134.891 85.28 133.691 86.4C132.491 87.44 131.291 88.32 130.091 89.04C128.971 89.68 127.931 90 126.971 90C124.891 90 123.051 88.8 121.451 86.4C119.851 83.92 119.051 80.16 119.051 75.12C119.051 70.96 119.451 66.48 120.251 61.68C121.131 56.88 122.411 52.08 124.091 47.28C125.771 42.4 127.851 37.68 130.331 33.12C132.891 28.56 135.811 24.4 139.091 20.64C134.131 24.32 129.051 28.76 123.851 33.96C118.731 39.08 113.771 44.6 108.971 50.52C104.251 56.36 99.8511 62.4 95.7711 68.64C91.6911 74.8 88.2911 80.76 85.5711 86.52C85.2511 87.08 84.6511 87.8 83.7711 88.68C82.8911 89.56 82.2111 90 81.7311 90C81.1711 90 80.8911 89.72 80.8911 89.16C82.4111 76.76 84.5711 65.76 87.3711 56.16C90.2511 46.48 93.6511 37.56 97.5711 29.4C91.1711 39 84.8911 47.56 78.7311 55.08C72.5711 62.6 66.4111 68.96 60.2511 74.16C54.0911 79.28 47.8111 83.2 41.4111 85.92C35.0111 88.64 28.3711 90 21.4911 90C18.2111 90 15.2911 89.48 12.7311 88.44C10.1711 87.4 7.97109 85.96 6.13109 84.12C4.29109 82.28 2.89109 80.12 1.93109 77.64C0.971094 75.16 0.491094 72.44 0.491094 69.48C0.491094 65.64 1.37109 62.12 3.13109 58.92C4.97109 55.72 7.65109 53.2 11.1711 51.36C11.4911 51.2 11.6911 51.28 11.7711 51.6C11.9311 51.92 11.9311 52.24 11.7711 52.56C9.29109 54.16 7.53109 56 6.49109 58.08C5.53109 60.16 5.05109 62.88 5.05109 66.24C5.05109 68.88 5.49109 71.4 6.37109 73.8C7.25109 76.12 8.53109 78.16 10.2111 79.92C11.9711 81.68 14.0911 83.08 16.5711 84.12C19.1311 85.16 22.0911 85.68 25.4511 85.68C32.4911 85.68 39.2111 84.08 45.6111 80.88C52.0911 77.6 58.3711 73.12 64.4511 67.44C70.5311 61.76 76.4911 55.12 82.3311 47.52C88.1711 39.92 94.0111 31.72 99.8511 22.92C94.2511 21 88.3711 19.4 82.2111 18.12C76.1311 16.76 70.2911 16.08 64.6911 16.08C58.6911 16.08 53.6911 17.84 49.6911 21.36C45.6911 24.8 43.2511 30.08 42.3711 37.2C42.2111 37.6 41.9711 37.76 41.6511 37.68C41.4111 37.6 41.2511 37.36 41.1711 36.96C42.0511 29.12 44.9311 23.12 49.8111 18.96C54.6911 14.8 61.0511 12.72 68.8911 12.72C72.1711 12.72 75.4911 12.96 78.8511 13.44C82.2111 13.84 85.4911 14.4 88.6911 15.12C91.8911 15.76 94.9311 16.52 97.8111 17.4C100.771 18.2 103.451 19 105.851 19.8C106.011 19.72 106.171 19.68 106.331 19.68C106.571 19.68 106.771 19.64 106.931 19.56C107.251 19.56 107.411 19.72 107.411 20.04C107.491 20.36 107.451 20.64 107.291 20.88C106.171 21.6 105.251 22.48 104.531 23.52C103.811 24.56 103.011 25.92 102.131 27.6C98.1311 35.6 94.9311 44 92.5311 52.8C90.2111 61.52 88.2511 70.36 86.6511 79.32C90.4111 72.68 94.7311 66.04 99.6111 59.4C104.491 52.76 109.651 46.44 115.091 40.44C120.531 34.44 126.131 28.96 131.891 24C137.651 18.96 143.251 14.72 148.691 11.28ZM173.021 82.44C173.181 82.28 173.381 82.28 173.621 82.44C173.861 82.6 173.941 82.84 173.861 83.16C172.181 85.48 170.501 87.2 168.821 88.32C167.221 89.44 165.861 90 164.741 90C164.021 90 163.421 89.64 162.941 88.92C162.541 88.2 162.261 87.24 162.101 86.04C162.021 84.76 162.061 83.36 162.221 81.84C162.461 80.24 162.821 78.6 163.301 76.92C161.141 80.28 158.861 83.2 156.461 85.68C154.061 88.08 151.741 89.52 149.501 90C148.061 90 146.821 89.32 145.781 87.96C144.821 86.52 144.341 84.32 144.341 81.36C144.341 78.72 144.861 76.12 145.901 73.56C147.021 70.92 148.501 68.56 150.341 66.48C152.181 64.32 154.301 62.6 156.701 61.32C159.101 60.04 161.621 59.4 164.261 59.4C165.701 59.4 166.941 59.56 167.981 59.88C169.021 60.2 169.981 60.68 170.861 61.32C171.341 60.92 171.981 60.56 172.781 60.24C173.661 59.84 174.461 59.64 175.181 59.64C175.581 59.64 175.701 59.84 175.541 60.24C173.701 62.48 172.101 64.96 170.741 67.68C169.461 70.4 168.461 73.04 167.741 75.6C167.021 78.16 166.541 80.44 166.301 82.44C166.141 84.36 166.301 85.68 166.781 86.4C167.181 86.96 167.901 87 168.941 86.52C169.981 85.96 171.341 84.6 173.021 82.44ZM152.141 85.92C153.021 85.92 154.141 85.32 155.501 84.12C156.941 82.84 158.421 81.2 159.941 79.2C161.461 77.2 162.941 74.96 164.381 72.48C165.901 69.92 167.221 67.36 168.341 64.8C168.021 63.76 167.261 62.92 166.061 62.28C164.941 61.64 163.621 61.32 162.101 61.32C160.341 61.32 158.661 61.8 157.061 62.76C155.541 63.64 154.181 64.92 152.981 66.6C151.781 68.2 150.821 70.12 150.101 72.36C149.381 74.6 149.021 77.08 149.021 79.8C149.021 81.56 149.301 83.04 149.861 84.24C150.501 85.36 151.261 85.92 152.141 85.92ZM200.735 59.4C202.335 59.4 203.615 60.12 204.575 61.56C205.535 63 206.015 64.84 206.015 67.08C206.015 70.2 205.455 73.16 204.335 75.96C203.295 78.68 201.815 81.12 199.895 83.28C198.055 85.36 195.855 87.04 193.295 88.32C190.735 89.52 187.935 90.12 184.895 90.12C183.535 90.12 182.415 89.84 181.535 89.28C180.175 93.28 178.935 97.52 177.815 102C176.695 106.56 176.135 110.8 176.135 114.72C176.135 116.48 177.055 117.24 178.895 117C180.095 116.76 181.295 116.28 182.495 115.56C182.735 115.48 182.855 115.6 182.855 115.92C182.935 116.32 182.895 116.64 182.735 116.88C181.775 117.44 180.455 118 178.775 118.56C177.095 119.12 175.495 119.4 173.975 119.4C173.335 119.4 172.815 119.24 172.415 118.92C172.015 118.68 171.815 118.2 171.815 117.48C171.815 113.4 172.455 108.68 173.735 103.32C175.015 97.96 176.695 92.4 178.775 86.64C178.615 86.4 178.455 86.16 178.295 85.92C178.215 85.6 178.135 85.28 178.055 84.96C177.975 84.64 178.575 84.28 179.855 83.88C180.895 81 182.015 78.12 183.215 75.24C184.415 72.36 185.615 69.56 186.815 66.84C188.335 63.48 189.015 61.44 188.855 60.72C188.775 59.92 188.295 59.76 187.415 60.24C186.855 60.56 186.215 61 185.495 61.56C184.775 62.12 184.095 62.76 183.455 63.48C183.295 63.64 183.095 63.6 182.855 63.36C182.695 63.04 182.655 62.8 182.735 62.64C183.215 62.08 183.855 61.44 184.655 60.72C185.455 60 186.255 59.32 187.055 58.68C187.935 57.96 188.775 57.36 189.575 56.88C190.455 56.4 191.215 56.16 191.855 56.16C192.495 56.16 192.895 56.52 193.055 57.24C193.295 57.88 193.175 58.76 192.695 59.88C192.215 61.24 191.575 62.84 190.775 64.68C190.055 66.44 189.255 68.2 188.375 69.96C190.615 66.6 192.815 64 194.975 62.16C197.135 60.32 199.055 59.4 200.735 59.4ZM187.895 87.72C189.895 87.72 191.735 87.28 193.415 86.4C195.175 85.52 196.655 84.32 197.855 82.8C199.135 81.2 200.095 79.36 200.735 77.28C201.455 75.12 201.815 72.76 201.815 70.2C201.815 68.28 201.455 66.72 200.735 65.52C200.095 64.24 199.055 63.6 197.615 63.6C195.775 63.6 193.575 65.24 191.015 68.52C188.455 71.8 186.095 76.44 183.935 82.44C183.775 82.84 183.615 83.24 183.455 83.64C183.375 84.04 183.255 84.44 183.095 84.84C183.495 85.72 184.055 86.44 184.775 87C185.575 87.48 186.615 87.72 187.895 87.72ZM260.224 0.839996C262.304 0.839996 263.624 1.8 264.184 3.72C264.824 5.63999 264.584 7.67999 263.464 9.83999C263.304 10 263.104 10 262.864 9.83999C262.624 9.68 262.464 9.48 262.384 9.24C262.544 8.27999 262.184 7.47999 261.304 6.84C260.504 6.2 259.224 5.88 257.464 5.88C254.024 5.88 250.624 7.32 247.264 10.2C243.904 13.08 240.664 16.84 237.544 21.48C234.424 26.04 231.504 31.16 228.784 36.84C226.144 42.52 223.824 48.2 221.824 53.88C219.904 59.48 218.384 64.8 217.264 69.84C216.144 74.8 215.584 78.84 215.584 81.96C215.584 84.36 216.264 85.56 217.624 85.56C218.584 85.56 219.504 85.16 220.384 84.36C221.344 83.56 222.424 82.36 223.624 80.76C223.864 80.6 224.064 80.64 224.224 80.88C224.464 81.04 224.544 81.28 224.464 81.6C222.864 84.08 221.104 86.12 219.184 87.72C217.264 89.24 215.624 90 214.264 90C213.224 90 212.384 89.6 211.744 88.8C211.104 87.92 210.784 86.76 210.784 85.32C210.784 83.08 211.184 80.2 211.984 76.68C212.784 73.08 213.904 69.08 215.344 64.68C216.784 60.28 218.504 55.68 220.504 50.88C222.584 46 224.824 41.2 227.224 36.48C229.624 31.76 232.144 27.24 234.784 22.92C237.504 18.6 240.264 14.8 243.064 11.52C245.944 8.23999 248.824 5.63999 251.704 3.72C254.584 1.8 257.424 0.839996 260.224 0.839996ZM247.958 64.56C247.958 65.68 247.518 66.72 246.638 67.68C245.758 68.64 244.558 69.52 243.038 70.32C241.518 71.04 239.758 71.72 237.758 72.36C235.838 73 233.798 73.6 231.638 74.16C231.558 75.04 231.478 75.92 231.398 76.8C231.398 77.68 231.398 78.64 231.398 79.68C231.398 81.68 231.838 83.36 232.718 84.72C233.598 86.08 234.838 86.76 236.438 86.76C238.038 86.76 239.518 86.36 240.878 85.56C242.318 84.76 243.598 83.68 244.718 82.32C245.038 82.16 245.278 82.2 245.438 82.44C245.598 82.68 245.598 82.96 245.438 83.28C244.078 85.12 242.358 86.72 240.278 88.08C238.278 89.36 236.158 90 233.918 90C231.838 90 230.118 89.32 228.758 87.96C227.478 86.6 226.838 84.6 226.838 81.96C226.838 79.56 227.278 77.04 228.158 74.4C229.038 71.68 230.198 69.2 231.638 66.96C233.078 64.72 234.718 62.88 236.558 61.44C238.478 60 240.478 59.28 242.558 59.28C244.078 59.28 245.358 59.84 246.398 60.96C247.438 62 247.958 63.2 247.958 64.56ZM240.038 62.4C238.198 62.4 236.558 63.2 235.118 64.8C233.678 66.4 232.638 68.92 231.998 72.36C235.838 71.8 238.638 71 240.398 69.96C242.238 68.84 243.158 67.6 243.158 66.24C243.158 65.12 242.878 64.2 242.318 63.48C241.758 62.76 240.998 62.4 240.038 62.4ZM253.965 75.48C253.965 72.76 254.645 70.28 256.005 68.04C257.445 65.72 259.485 63.88 262.125 62.52C262.445 62.36 262.645 62.48 262.725 62.88C262.885 63.2 262.885 63.48 262.725 63.72C259.845 65.32 258.405 68.2 258.405 72.36C258.405 74.44 258.845 76.4 259.725 78.24C260.605 80 261.845 81.56 263.445 82.92C265.125 84.2 267.125 85.24 269.445 86.04C271.845 86.84 274.565 87.24 277.605 87.24C284.885 87.24 290.245 85.68 293.685 82.56C297.205 79.44 298.965 75.6 298.965 71.04C298.965 68 298.525 65.24 297.645 62.76C296.765 60.28 295.645 57.96 294.285 55.8C293.005 53.56 291.605 51.44 290.085 49.44C288.565 47.44 287.125 45.44 285.765 43.44C284.485 41.44 283.405 39.36 282.525 37.2C281.645 35.04 281.205 32.68 281.205 30.12C281.205 27.72 281.685 25.48 282.645 23.4C283.605 21.24 284.885 19.4 286.485 17.88C288.085 16.28 289.965 15.04 292.125 14.16C294.365 13.2 296.765 12.72 299.325 12.72C302.925 12.72 305.765 13.64 307.845 15.48C309.925 17.32 310.965 19.4 310.965 21.72C310.965 23.08 310.525 24.56 309.645 26.16C308.765 27.76 307.885 29.16 307.005 30.36C306.685 30.52 306.405 30.52 306.165 30.36C306.005 30.12 305.925 29.8 305.925 29.4C306.965 28.12 307.485 26.36 307.485 24.12C307.485 21.8 306.445 19.84 304.365 18.24C302.365 16.56 299.685 15.72 296.325 15.72C292.885 15.72 290.085 16.72 287.925 18.72C285.845 20.64 284.805 23.08 284.805 26.04C284.805 28.44 285.245 30.72 286.125 32.88C287.085 34.96 288.245 37.08 289.605 39.24C290.965 41.32 292.405 43.44 293.925 45.6C295.525 47.68 297.005 49.88 298.365 52.2C299.725 54.44 300.845 56.84 301.725 59.4C302.685 61.88 303.165 64.6 303.165 67.56C303.165 70.84 302.445 73.88 301.005 76.68C299.565 79.4 297.605 81.76 295.125 83.76C292.645 85.76 289.725 87.32 286.365 88.44C283.005 89.48 279.445 90 275.685 90C268.645 90 263.245 88.64 259.485 85.92C255.805 83.2 253.965 79.72 253.965 75.48ZM330.341 59.76C330.741 59.92 330.901 60.16 330.821 60.48C330.741 60.8 330.381 61 329.741 61.08C328.461 61.16 327.021 61.24 325.421 61.32C323.901 61.4 322.341 61.52 320.741 61.68C319.141 65.68 317.821 69.52 316.781 73.2C315.741 76.88 315.221 79.92 315.221 82.32C315.221 85.04 316.261 86.4 318.341 86.4C320.421 86.4 322.701 84.56 325.181 80.88C325.421 80.72 325.661 80.76 325.901 81C326.141 81.16 326.221 81.44 326.141 81.84C325.421 82.96 324.581 84.04 323.621 85.08C322.741 86.04 321.821 86.88 320.861 87.6C319.901 88.32 318.981 88.92 318.101 89.4C317.221 89.8 316.501 90 315.941 90C314.181 90 312.861 89.48 311.981 88.44C311.181 87.32 310.781 86 310.781 84.48C310.781 81.84 311.341 78.52 312.461 74.52C313.581 70.52 314.981 66.4 316.661 62.16C315.621 62.32 314.621 62.48 313.661 62.64C312.701 62.8 311.781 62.96 310.901 63.12C310.501 63.04 310.381 62.84 310.541 62.52C310.781 62.2 311.141 61.88 311.621 61.56C312.181 61.24 312.821 60.96 313.541 60.72C314.261 60.4 314.941 60.24 315.581 60.24C315.981 60.16 316.301 60.12 316.541 60.12C316.861 60.12 317.181 60.12 317.501 60.12C318.621 57.64 319.741 55.28 320.861 53.04C321.981 50.72 323.101 48.6 324.221 46.68C324.701 46.2 325.221 45.8 325.781 45.48C326.421 45.08 327.021 44.84 327.581 44.76C328.141 44.6 328.581 44.56 328.901 44.64C329.221 44.64 329.341 44.76 329.261 45C327.901 47.08 326.541 49.4 325.181 51.96C323.901 54.52 322.661 57.16 321.461 59.88C322.901 59.88 324.341 59.88 325.781 59.88C327.221 59.8 328.741 59.76 330.341 59.76ZM358.529 82.44C358.689 82.28 358.889 82.28 359.129 82.44C359.369 82.6 359.449 82.84 359.369 83.16C357.689 85.48 356.009 87.2 354.329 88.32C352.729 89.44 351.369 90 350.249 90C349.529 90 348.929 89.64 348.449 88.92C348.049 88.2 347.769 87.24 347.609 86.04C347.529 84.76 347.569 83.36 347.729 81.84C347.969 80.24 348.329 78.6 348.809 76.92C346.649 80.28 344.369 83.2 341.969 85.68C339.569 88.08 337.249 89.52 335.009 90C333.569 90 332.329 89.32 331.289 87.96C330.329 86.52 329.849 84.32 329.849 81.36C329.849 78.72 330.369 76.12 331.409 73.56C332.529 70.92 334.009 68.56 335.849 66.48C337.689 64.32 339.809 62.6 342.209 61.32C344.609 60.04 347.129 59.4 349.769 59.4C351.209 59.4 352.449 59.56 353.489 59.88C354.529 60.2 355.489 60.68 356.369 61.32C356.849 60.92 357.489 60.56 358.289 60.24C359.169 59.84 359.969 59.64 360.689 59.64C361.089 59.64 361.209 59.84 361.049 60.24C359.209 62.48 357.609 64.96 356.249 67.68C354.969 70.4 353.969 73.04 353.249 75.6C352.529 78.16 352.049 80.44 351.809 82.44C351.649 84.36 351.809 85.68 352.289 86.4C352.689 86.96 353.409 87 354.449 86.52C355.489 85.96 356.849 84.6 358.529 82.44ZM337.649 85.92C338.529 85.92 339.649 85.32 341.009 84.12C342.449 82.84 343.929 81.2 345.449 79.2C346.969 77.2 348.449 74.96 349.889 72.48C351.409 69.92 352.729 67.36 353.849 64.8C353.529 63.76 352.769 62.92 351.569 62.28C350.449 61.64 349.129 61.32 347.609 61.32C345.849 61.32 344.169 61.8 342.569 62.76C341.049 63.64 339.689 64.92 338.489 66.6C337.289 68.2 336.329 70.12 335.609 72.36C334.889 74.6 334.529 77.08 334.529 79.8C334.529 81.56 334.809 83.04 335.369 84.24C336.009 85.36 336.769 85.92 337.649 85.92ZM390.562 62.16C390.642 61.92 390.842 61.68 391.162 61.44C391.482 61.12 391.842 60.8 392.242 60.48C392.722 60.16 393.162 59.92 393.562 59.76C394.042 59.52 394.402 59.4 394.642 59.4C395.362 59.4 395.642 59.68 395.482 60.24C393.722 65.2 392.002 70.04 390.322 74.76C388.642 79.4 386.842 84.24 384.922 89.28C382.762 94.88 380.442 99.56 377.962 103.32C375.562 107.16 373.002 110.24 370.282 112.56C367.642 114.96 364.882 116.68 362.002 117.72C359.122 118.76 356.162 119.28 353.122 119.28C348.882 119.28 345.682 118.2 343.522 116.04C341.282 113.96 340.162 111.36 340.162 108.24C340.162 106.8 340.562 105.28 341.362 103.68C342.082 102.08 343.242 100.68 344.842 99.48C345.082 99.32 345.322 99.4 345.562 99.72C345.722 100.04 345.722 100.28 345.562 100.44C344.282 101.96 343.642 103.68 343.642 105.6C343.642 108.96 344.602 111.68 346.522 113.76C348.442 115.84 351.362 116.88 355.282 116.88C358.082 116.88 360.642 116.44 362.962 115.56C365.362 114.68 367.602 113.12 369.682 110.88C371.842 108.64 373.882 105.64 375.802 101.88C377.802 98.12 379.842 93.4 381.922 87.72C382.802 85.08 383.642 82.64 384.442 80.4C385.322 78.16 386.202 75.84 387.082 73.44C384.042 78.24 380.842 82.16 377.482 85.2C374.202 88.24 371.282 89.88 368.722 90.12C367.682 90.12 366.922 89.64 366.442 88.68C365.962 87.72 365.722 86.4 365.722 84.72C365.722 83.28 365.882 81.72 366.202 80.04C366.522 78.28 366.962 76.48 367.522 74.64C368.162 72.8 368.922 70.96 369.802 69.12C370.762 67.2 371.802 65.36 372.922 63.6C372.042 64.24 371.122 64.96 370.162 65.76C369.202 66.48 368.402 67.16 367.762 67.8C367.522 67.96 367.282 67.92 367.042 67.68C366.882 67.36 366.882 67.08 367.042 66.84C368.162 65.72 369.682 64.44 371.602 63C373.522 61.56 375.402 60.36 377.242 59.4C378.042 59.4 378.362 59.76 378.202 60.48C377.002 62.08 375.882 63.88 374.842 65.88C373.882 67.8 373.042 69.76 372.322 71.76C371.602 73.68 371.042 75.6 370.642 77.52C370.242 79.44 370.042 81.16 370.042 82.68C370.042 84.92 370.802 86.04 372.322 86.04C373.602 86.04 375.122 85.2 376.882 83.52C378.722 81.76 380.522 79.68 382.282 77.28C384.122 74.8 385.762 72.2 387.202 69.48C388.722 66.68 389.842 64.24 390.562 62.16ZM400.795 84.12C402.635 84.76 404.515 85.32 406.435 85.8C408.435 86.2 410.435 86.4 412.435 86.4C414.515 86.4 416.195 85.84 417.475 84.72C418.835 83.52 419.955 81.76 420.835 79.44C421.075 79.28 421.355 79.28 421.675 79.44C421.995 79.6 422.075 79.84 421.915 80.16C420.795 83.2 419.315 85.64 417.475 87.48C415.715 89.24 413.595 90.12 411.115 90.12C409.435 90.12 407.755 89.96 406.075 89.64C404.395 89.24 402.635 88.72 400.795 88.08C399.835 87.68 398.915 87.64 398.035 87.96C397.235 88.28 396.235 89 395.035 90.12C394.635 90.12 394.315 89.92 394.075 89.52C393.835 89.12 393.835 88.72 394.075 88.32C395.835 86.56 397.755 84.64 399.835 82.56C401.995 80.48 404.155 78.36 406.315 76.2C408.475 74.04 410.555 71.96 412.555 69.96C414.635 67.96 416.515 66.12 418.195 64.44C416.435 64.04 414.475 63.72 412.315 63.48C410.155 63.24 408.315 63.12 406.795 63.12C404.475 63.12 402.875 64.4 401.995 66.96C401.835 67.2 401.595 67.24 401.275 67.08C400.955 66.92 400.795 66.72 400.795 66.48C401.435 64.72 402.435 63.12 403.795 61.68C405.155 60.16 406.875 59.4 408.955 59.4C410.795 59.4 412.555 59.6 414.235 60C415.915 60.32 417.315 60.64 418.435 60.96C419.315 61.12 420.075 61.12 420.715 60.96C421.355 60.72 421.995 60.32 422.635 59.76C422.875 59.52 423.235 59.4 423.715 59.4C424.675 59.4 425.075 59.72 424.915 60.36C420.595 64.52 416.355 68.64 412.195 72.72C408.115 76.72 404.315 80.52 400.795 84.12Z" fill="#FF009C"/>
</svg>
