<svg width="454" height="128" viewBox="0 0 454 128" fill="none" xmlns="http://www.w3.org/2000/svg">
<path d="M158.608 12.032C159.035 12.032 159.333 12.2453 159.504 12.672C159.675 13.0987 159.632 13.4827 159.376 13.824C155.28 17.408 151.568 21.7173 148.24 26.752C144.997 31.7013 142.181 36.9493 139.792 42.496C137.403 48.0427 135.568 53.7173 134.288 59.52C133.008 65.2373 132.368 70.6133 132.368 75.648C132.368 80.256 132.923 83.8827 134.032 86.528C135.141 89.088 136.677 90.368 138.64 90.368C141.883 90.368 145.083 87.9787 148.24 83.2C148.496 82.944 148.752 82.944 149.008 83.2C149.349 83.3707 149.477 83.6267 149.392 83.968C148.453 85.4187 147.387 86.8693 146.192 88.32C145.083 89.6853 143.888 90.9653 142.608 92.16C141.328 93.2693 140.048 94.208 138.768 94.976C137.573 95.6587 136.464 96 135.44 96C133.221 96 131.259 94.72 129.552 92.16C127.845 89.5147 126.992 85.504 126.992 80.128C126.992 75.6907 127.419 70.912 128.272 65.792C129.211 60.672 130.576 55.552 132.368 50.432C134.16 45.2267 136.379 40.192 139.024 35.328C141.755 30.464 144.869 26.0267 148.368 22.016C143.077 25.9413 137.659 30.6773 132.112 36.224C126.651 41.6853 121.36 47.5733 116.24 53.888C111.205 60.1173 106.512 66.56 102.16 73.216C97.808 79.7867 94.1813 86.144 91.28 92.288C90.9387 92.8853 90.2987 93.6533 89.36 94.592C88.4213 95.5307 87.696 96 87.184 96C86.5867 96 86.288 95.7013 86.288 95.104C87.9093 81.8773 90.2133 70.144 93.2 59.904C96.272 49.5787 99.8987 40.064 104.08 31.36C97.2533 41.6 90.5547 50.7307 83.984 58.752C77.4133 66.7733 70.8427 73.5573 64.272 79.104C57.7013 84.5653 51.0027 88.7467 44.176 91.648C37.3493 94.5493 30.2667 96 22.928 96C19.4293 96 16.3147 95.4453 13.584 94.336C10.8533 93.2267 8.50667 91.6907 6.544 89.728C4.58133 87.7653 3.088 85.4613 2.064 82.816C1.04 80.1707 0.528 77.2693 0.528 74.112C0.528 70.016 1.46667 66.2613 3.344 62.848C5.30667 59.4347 8.16533 56.7467 11.92 54.784C12.2613 54.6133 12.4747 54.6987 12.56 55.04C12.7307 55.3813 12.7307 55.7227 12.56 56.064C9.91467 57.7707 8.03733 59.7333 6.928 61.952C5.904 64.1707 5.392 67.072 5.392 70.656C5.392 73.472 5.86133 76.16 6.8 78.72C7.73867 81.1947 9.104 83.3707 10.896 85.248C12.7733 87.1253 15.0347 88.6187 17.68 89.728C20.4107 90.8373 23.568 91.392 27.152 91.392C34.6613 91.392 41.8293 89.6853 48.656 86.272C55.568 82.7733 62.2667 77.9947 68.752 71.936C75.2373 65.8773 81.5947 58.7947 87.824 50.688C94.0533 42.5813 100.283 33.8347 106.512 24.448C100.539 22.4 94.2667 20.6933 87.696 19.328C81.2107 17.8773 74.9813 17.152 69.008 17.152C62.608 17.152 57.2747 19.0293 53.008 22.784C48.7413 26.4533 46.1387 32.0853 45.2 39.68C45.0293 40.1067 44.7733 40.2773 44.432 40.192C44.176 40.1067 44.0053 39.8507 43.92 39.424C44.8587 31.0613 47.9307 24.6613 53.136 20.224C58.3413 15.7867 65.1253 13.568 73.488 13.568C76.9867 13.568 80.528 13.824 84.112 14.336C87.696 14.7627 91.1947 15.36 94.608 16.128C98.0213 16.8107 101.264 17.6213 104.336 18.56C107.493 19.4133 110.352 20.2667 112.912 21.12C113.083 21.0347 113.253 20.992 113.424 20.992C113.68 20.992 113.893 20.9493 114.064 20.864C114.405 20.864 114.576 21.0347 114.576 21.376C114.661 21.7173 114.619 22.016 114.448 22.272C113.253 23.04 112.272 23.9787 111.504 25.088C110.736 26.1973 109.883 27.648 108.944 29.44C104.677 37.9733 101.264 46.9333 98.704 56.32C96.2293 65.6213 94.1387 75.0507 92.432 84.608C96.4427 77.5253 101.051 70.4427 106.256 63.36C111.461 56.2773 116.965 49.536 122.768 43.136C128.571 36.736 134.544 30.8907 140.688 25.6C146.832 20.224 152.805 15.7013 158.608 12.032ZM184.56 87.936C184.731 87.7653 184.944 87.7653 185.2 87.936C185.456 88.1067 185.541 88.3627 185.456 88.704C183.664 91.1787 181.872 93.0133 180.08 94.208C178.373 95.4027 176.923 96 175.728 96C174.96 96 174.32 95.616 173.808 94.848C173.381 94.08 173.083 93.056 172.912 91.776C172.827 90.4107 172.869 88.9173 173.04 87.296C173.296 85.5893 173.68 83.84 174.192 82.048C171.888 85.632 169.456 88.7467 166.896 91.392C164.336 93.952 161.861 95.488 159.472 96C157.936 96 156.613 95.2747 155.504 93.824C154.48 92.288 153.968 89.9413 153.968 86.784C153.968 83.968 154.523 81.1947 155.632 78.464C156.827 75.648 158.405 73.1307 160.368 70.912C162.331 68.608 164.592 66.7733 167.152 65.408C169.712 64.0427 172.4 63.36 175.216 63.36C176.752 63.36 178.075 63.5307 179.184 63.872C180.293 64.2133 181.317 64.7253 182.256 65.408C182.768 64.9813 183.451 64.5973 184.304 64.256C185.243 63.8293 186.096 63.616 186.864 63.616C187.291 63.616 187.419 63.8293 187.248 64.256C185.285 66.6453 183.579 69.2907 182.128 72.192C180.763 75.0933 179.696 77.9093 178.928 80.64C178.16 83.3707 177.648 85.8027 177.392 87.936C177.221 89.984 177.392 91.392 177.904 92.16C178.331 92.7573 179.099 92.8 180.208 92.288C181.317 91.6907 182.768 90.24 184.56 87.936ZM162.288 91.648C163.227 91.648 164.421 91.008 165.872 89.728C167.408 88.3627 168.987 86.6133 170.608 84.48C172.229 82.3467 173.808 79.9573 175.344 77.312C176.965 74.5813 178.373 71.8507 179.568 69.12C179.227 68.0107 178.416 67.1147 177.136 66.432C175.941 65.7493 174.533 65.408 172.912 65.408C171.035 65.408 169.243 65.92 167.536 66.944C165.915 67.8827 164.464 69.248 163.184 71.04C161.904 72.7467 160.88 74.7947 160.112 77.184C159.344 79.5733 158.96 82.2187 158.96 85.12C158.96 86.9973 159.259 88.576 159.856 89.856C160.539 91.0507 161.349 91.648 162.288 91.648ZM214.121 63.36C215.828 63.36 217.193 64.128 218.217 65.664C219.241 67.2 219.753 69.1627 219.753 71.552C219.753 74.88 219.156 78.0373 217.961 81.024C216.852 83.9253 215.273 86.528 213.225 88.832C211.262 91.0507 208.916 92.8427 206.185 94.208C203.454 95.488 200.468 96.128 197.225 96.128C195.774 96.128 194.58 95.8293 193.641 95.232C192.19 99.4987 190.868 104.021 189.673 108.8C188.478 113.664 187.881 118.187 187.881 122.368C187.881 124.245 188.862 125.056 190.825 124.8C192.105 124.544 193.385 124.032 194.665 123.264C194.921 123.179 195.049 123.307 195.049 123.648C195.134 124.075 195.092 124.416 194.921 124.672C193.897 125.269 192.489 125.867 190.697 126.464C188.905 127.061 187.198 127.36 185.577 127.36C184.894 127.36 184.34 127.189 183.913 126.848C183.486 126.592 183.273 126.08 183.273 125.312C183.273 120.96 183.956 115.925 185.321 110.208C186.686 104.491 188.478 98.56 190.697 92.416C190.526 92.16 190.356 91.904 190.185 91.648C190.1 91.3067 190.014 90.9653 189.929 90.624C189.844 90.2827 190.484 89.8987 191.849 89.472C192.958 86.4 194.153 83.328 195.433 80.256C196.713 77.184 197.993 74.1973 199.273 71.296C200.894 67.712 201.62 65.536 201.449 64.768C201.364 63.9147 200.852 63.744 199.913 64.256C199.316 64.5973 198.633 65.0667 197.865 65.664C197.097 66.2613 196.372 66.944 195.689 67.712C195.518 67.8827 195.305 67.84 195.049 67.584C194.878 67.2427 194.836 66.9867 194.921 66.816C195.433 66.2187 196.116 65.536 196.969 64.768C197.822 64 198.676 63.2747 199.529 62.592C200.468 61.824 201.364 61.184 202.217 60.672C203.156 60.16 203.966 59.904 204.649 59.904C205.332 59.904 205.758 60.288 205.929 61.056C206.185 61.7387 206.057 62.6773 205.545 63.872C205.033 65.3227 204.35 67.0293 203.497 68.992C202.729 70.8693 201.876 72.7467 200.937 74.624C203.326 71.04 205.673 68.2667 207.977 66.304C210.281 64.3413 212.329 63.36 214.121 63.36ZM200.425 93.568C202.558 93.568 204.521 93.0987 206.313 92.16C208.19 91.2213 209.769 89.9413 211.049 88.32C212.414 86.6133 213.438 84.6507 214.121 82.432C214.889 80.128 215.273 77.6107 215.273 74.88C215.273 72.832 214.889 71.168 214.121 69.888C213.438 68.5227 212.329 67.84 210.793 67.84C208.83 67.84 206.484 69.5893 203.753 73.088C201.022 76.5867 198.505 81.536 196.201 87.936C196.03 88.3627 195.86 88.7893 195.689 89.216C195.604 89.6427 195.476 90.0693 195.305 90.496C195.732 91.4347 196.329 92.2027 197.097 92.8C197.95 93.312 199.06 93.568 200.425 93.568ZM277.576 0.895996C279.795 0.895996 281.203 1.92 281.8 3.96799C282.483 6.01599 282.227 8.19199 281.032 10.496C280.861 10.6667 280.648 10.6667 280.392 10.496C280.136 10.3253 279.965 10.112 279.88 9.856C280.051 8.83199 279.667 7.97866 278.728 7.296C277.875 6.61333 276.509 6.272 274.632 6.272C270.963 6.272 267.336 7.808 263.752 10.88C260.168 13.952 256.712 17.9627 253.384 22.912C250.056 27.776 246.941 33.2373 244.04 39.296C241.224 45.3547 238.749 51.4133 236.616 57.472C234.568 63.4453 232.947 69.12 231.752 74.496C230.557 79.7867 229.96 84.096 229.96 87.424C229.96 89.984 230.685 91.264 232.136 91.264C233.16 91.264 234.141 90.8373 235.08 89.984C236.104 89.1307 237.256 87.8507 238.536 86.144C238.792 85.9733 239.005 86.016 239.176 86.272C239.432 86.4427 239.517 86.6987 239.432 87.04C237.725 89.6853 235.848 91.8613 233.8 93.568C231.752 95.1893 230.003 96 228.552 96C227.443 96 226.547 95.5733 225.864 94.72C225.181 93.7813 224.84 92.544 224.84 91.008C224.84 88.6187 225.267 85.5467 226.12 81.792C226.973 77.952 228.168 73.6853 229.704 68.992C231.24 64.2987 233.075 59.392 235.208 54.272C237.427 49.0667 239.816 43.9467 242.376 38.912C244.936 33.8773 247.624 29.056 250.44 24.448C253.341 19.84 256.285 15.7867 259.272 12.288C262.344 8.78933 265.416 6.01599 268.488 3.96799C271.56 1.92 274.589 0.895996 277.576 0.895996ZM264.493 68.864C264.493 70.0587 264.024 71.168 263.085 72.192C262.146 73.216 260.866 74.1547 259.245 75.008C257.624 75.776 255.746 76.5013 253.613 77.184C251.565 77.8667 249.389 78.5067 247.085 79.104C247 80.0427 246.914 80.9813 246.829 81.92C246.829 82.8587 246.829 83.8827 246.829 84.992C246.829 87.1253 247.298 88.9173 248.237 90.368C249.176 91.8187 250.498 92.544 252.205 92.544C253.912 92.544 255.49 92.1173 256.941 91.264C258.477 90.4107 259.842 89.2587 261.037 87.808C261.378 87.6373 261.634 87.68 261.805 87.936C261.976 88.192 261.976 88.4907 261.805 88.832C260.354 90.7947 258.52 92.5013 256.301 93.952C254.168 95.3173 251.906 96 249.517 96C247.298 96 245.464 95.2747 244.013 93.824C242.648 92.3733 241.965 90.24 241.965 87.424C241.965 84.864 242.434 82.176 243.373 79.36C244.312 76.4587 245.549 73.8133 247.085 71.424C248.621 69.0347 250.37 67.072 252.333 65.536C254.381 64 256.514 63.232 258.733 63.232C260.354 63.232 261.72 63.8293 262.829 65.024C263.938 66.1333 264.493 67.4133 264.493 68.864ZM256.045 66.56C254.082 66.56 252.333 67.4133 250.797 69.12C249.261 70.8267 248.152 73.5147 247.469 77.184C251.565 76.5867 254.552 75.7333 256.429 74.624C258.392 73.4293 259.373 72.1067 259.373 70.656C259.373 69.4613 259.074 68.48 258.477 67.712C257.88 66.944 257.069 66.56 256.045 66.56ZM270.9 80.512C270.9 77.6107 271.625 74.9653 273.076 72.576C274.612 70.1013 276.788 68.1387 279.604 66.688C279.945 66.5173 280.159 66.6453 280.244 67.072C280.415 67.4133 280.415 67.712 280.244 67.968C277.172 69.6747 275.636 72.7467 275.636 77.184C275.636 79.4027 276.105 81.4933 277.044 83.456C277.983 85.3333 279.305 86.9973 281.012 88.448C282.804 89.8133 284.937 90.9227 287.412 91.776C289.972 92.6293 292.873 93.056 296.116 93.056C303.881 93.056 309.599 91.392 313.268 88.064C317.023 84.736 318.9 80.64 318.9 75.776C318.9 72.5333 318.431 69.5893 317.492 66.944C316.553 64.2987 315.359 61.824 313.908 59.52C312.543 57.1307 311.049 54.8693 309.428 52.736C307.807 50.6027 306.271 48.4693 304.82 46.336C303.455 44.2027 302.303 41.984 301.364 39.68C300.425 37.376 299.956 34.8587 299.956 32.128C299.956 29.568 300.468 27.1787 301.492 24.96C302.516 22.656 303.881 20.6933 305.588 19.072C307.295 17.3653 309.3 16.0427 311.604 15.104C313.993 14.08 316.553 13.568 319.284 13.568C323.124 13.568 326.153 14.5493 328.372 16.512C330.591 18.4747 331.7 20.6933 331.7 23.168C331.7 24.6187 331.231 26.1973 330.292 27.904C329.353 29.6107 328.415 31.104 327.476 32.384C327.135 32.5547 326.836 32.5547 326.58 32.384C326.409 32.128 326.324 31.7867 326.324 31.36C327.433 29.9947 327.988 28.1173 327.988 25.728C327.988 23.2533 326.879 21.1627 324.66 19.456C322.527 17.664 319.668 16.768 316.084 16.768C312.415 16.768 309.428 17.8347 307.124 19.968C304.905 22.016 303.796 24.6187 303.796 27.776C303.796 30.336 304.265 32.768 305.204 35.072C306.228 37.2907 307.465 39.552 308.916 41.856C310.367 44.0747 311.903 46.336 313.524 48.64C315.231 50.8587 316.809 53.2053 318.26 55.68C319.711 58.0693 320.905 60.6293 321.844 63.36C322.868 66.0053 323.38 68.9067 323.38 72.064C323.38 75.5627 322.612 78.8053 321.076 81.792C319.54 84.6933 317.449 87.2107 314.804 89.344C312.159 91.4773 309.044 93.1413 305.46 94.336C301.876 95.4453 298.079 96 294.068 96C286.559 96 280.799 94.5493 276.788 91.648C272.863 88.7467 270.9 85.0347 270.9 80.512ZM352.368 63.744C352.795 63.9147 352.965 64.1707 352.88 64.512C352.795 64.8533 352.411 65.0667 351.728 65.152C350.363 65.2373 348.827 65.3227 347.12 65.408C345.499 65.4933 343.835 65.6213 342.128 65.792C340.421 70.0587 339.013 74.1547 337.904 78.08C336.795 82.0053 336.24 85.248 336.24 87.808C336.24 90.7093 337.349 92.16 339.568 92.16C341.787 92.16 344.219 90.1973 346.864 86.272C347.12 86.1013 347.376 86.144 347.632 86.4C347.888 86.5707 347.973 86.8693 347.888 87.296C347.12 88.4907 346.224 89.6427 345.2 90.752C344.261 91.776 343.28 92.672 342.256 93.44C341.232 94.208 340.251 94.848 339.312 95.36C338.373 95.7867 337.605 96 337.008 96C335.131 96 333.723 95.4453 332.784 94.336C331.931 93.1413 331.504 91.7333 331.504 90.112C331.504 87.296 332.101 83.7547 333.296 79.488C334.491 75.2213 335.984 70.8267 337.776 66.304C336.667 66.4747 335.6 66.6453 334.576 66.816C333.552 66.9867 332.571 67.1573 331.632 67.328C331.205 67.2427 331.077 67.0293 331.248 66.688C331.504 66.3467 331.888 66.0053 332.4 65.664C332.997 65.3227 333.68 65.024 334.448 64.768C335.216 64.4267 335.941 64.256 336.624 64.256C337.051 64.1707 337.392 64.128 337.648 64.128C337.989 64.128 338.331 64.128 338.672 64.128C339.867 61.4827 341.061 58.9653 342.256 56.576C343.451 54.1013 344.645 51.84 345.84 49.792C346.352 49.28 346.907 48.8533 347.504 48.512C348.187 48.0853 348.827 47.8293 349.424 47.744C350.021 47.5733 350.491 47.5307 350.832 47.616C351.173 47.616 351.301 47.744 351.216 48C349.765 50.2187 348.315 52.6933 346.864 55.424C345.499 58.1547 344.176 60.9707 342.896 63.872C344.432 63.872 345.968 63.872 347.504 63.872C349.04 63.7867 350.661 63.744 352.368 63.744ZM382.435 87.936C382.606 87.7653 382.819 87.7653 383.075 87.936C383.331 88.1067 383.416 88.3627 383.331 88.704C381.539 91.1787 379.747 93.0133 377.955 94.208C376.248 95.4027 374.798 96 373.603 96C372.835 96 372.195 95.616 371.683 94.848C371.256 94.08 370.958 93.056 370.787 91.776C370.702 90.4107 370.744 88.9173 370.915 87.296C371.171 85.5893 371.555 83.84 372.067 82.048C369.763 85.632 367.331 88.7467 364.771 91.392C362.211 93.952 359.736 95.488 357.347 96C355.811 96 354.488 95.2747 353.379 93.824C352.355 92.288 351.843 89.9413 351.843 86.784C351.843 83.968 352.398 81.1947 353.507 78.464C354.702 75.648 356.28 73.1307 358.243 70.912C360.206 68.608 362.467 66.7733 365.027 65.408C367.587 64.0427 370.275 63.36 373.091 63.36C374.627 63.36 375.95 63.5307 377.059 63.872C378.168 64.2133 379.192 64.7253 380.131 65.408C380.643 64.9813 381.326 64.5973 382.179 64.256C383.118 63.8293 383.971 63.616 384.739 63.616C385.166 63.616 385.294 63.8293 385.123 64.256C383.16 66.6453 381.454 69.2907 380.003 72.192C378.638 75.0933 377.571 77.9093 376.803 80.64C376.035 83.3707 375.523 85.8027 375.267 87.936C375.096 89.984 375.267 91.392 375.779 92.16C376.206 92.7573 376.974 92.8 378.083 92.288C379.192 91.6907 380.643 90.24 382.435 87.936ZM360.163 91.648C361.102 91.648 362.296 91.008 363.747 89.728C365.283 88.3627 366.862 86.6133 368.483 84.48C370.104 82.3467 371.683 79.9573 373.219 77.312C374.84 74.5813 376.248 71.8507 377.443 69.12C377.102 68.0107 376.291 67.1147 375.011 66.432C373.816 65.7493 372.408 65.408 370.787 65.408C368.91 65.408 367.118 65.92 365.411 66.944C363.79 67.8827 362.339 69.248 361.059 71.04C359.779 72.7467 358.755 74.7947 357.987 77.184C357.219 79.5733 356.835 82.2187 356.835 85.12C356.835 86.9973 357.134 88.576 357.731 89.856C358.414 91.0507 359.224 91.648 360.163 91.648ZM416.604 66.304C416.689 66.048 416.903 65.792 417.244 65.536C417.585 65.1947 417.969 64.8533 418.396 64.512C418.908 64.1707 419.377 63.9147 419.804 63.744C420.316 63.488 420.7 63.36 420.956 63.36C421.724 63.36 422.023 63.6587 421.852 64.256C419.975 69.5467 418.14 74.7093 416.348 79.744C414.556 84.6933 412.636 89.856 410.588 95.232C408.284 101.205 405.809 106.197 403.164 110.208C400.604 114.304 397.873 117.589 394.972 120.064C392.156 122.624 389.212 124.459 386.14 125.568C383.068 126.677 379.911 127.232 376.668 127.232C372.145 127.232 368.732 126.08 366.428 123.776C364.039 121.557 362.844 118.784 362.844 115.456C362.844 113.92 363.271 112.299 364.124 110.592C364.892 108.885 366.129 107.392 367.836 106.112C368.092 105.941 368.348 106.027 368.604 106.368C368.775 106.709 368.775 106.965 368.604 107.136C367.239 108.757 366.556 110.592 366.556 112.64C366.556 116.224 367.58 119.125 369.628 121.344C371.676 123.563 374.791 124.672 378.972 124.672C381.959 124.672 384.689 124.203 387.164 123.264C389.724 122.325 392.113 120.661 394.332 118.272C396.636 115.883 398.812 112.683 400.86 108.672C402.993 104.661 405.169 99.6267 407.388 93.568C408.327 90.752 409.223 88.1493 410.076 85.76C411.015 83.3707 411.953 80.896 412.892 78.336C409.649 83.456 406.236 87.6373 402.652 90.88C399.153 94.1227 396.039 95.872 393.308 96.128C392.199 96.128 391.388 95.616 390.876 94.592C390.364 93.568 390.108 92.16 390.108 90.368C390.108 88.832 390.279 87.168 390.62 85.376C390.961 83.4987 391.431 81.5787 392.028 79.616C392.711 77.6533 393.521 75.6907 394.46 73.728C395.484 71.68 396.593 69.7173 397.788 67.84C396.849 68.5227 395.868 69.2907 394.844 70.144C393.82 70.912 392.967 71.6373 392.284 72.32C392.028 72.4907 391.772 72.448 391.516 72.192C391.345 71.8507 391.345 71.552 391.516 71.296C392.711 70.1013 394.332 68.736 396.38 67.2C398.428 65.664 400.433 64.384 402.396 63.36C403.249 63.36 403.591 63.744 403.42 64.512C402.14 66.2187 400.945 68.1387 399.836 70.272C398.812 72.32 397.916 74.4107 397.148 76.544C396.38 78.592 395.783 80.64 395.356 82.688C394.929 84.736 394.716 86.5707 394.716 88.192C394.716 90.5813 395.527 91.776 397.148 91.776C398.513 91.776 400.135 90.88 402.012 89.088C403.975 87.2107 405.895 84.992 407.772 82.432C409.735 79.7867 411.484 77.0133 413.02 74.112C414.641 71.1253 415.836 68.5227 416.604 66.304ZM427.519 89.728C429.482 90.4107 431.487 91.008 433.535 91.52C435.668 91.9467 437.802 92.16 439.935 92.16C442.154 92.16 443.946 91.5627 445.311 90.368C446.762 89.088 447.956 87.2107 448.895 84.736C449.151 84.5653 449.45 84.5653 449.791 84.736C450.132 84.9067 450.218 85.1627 450.047 85.504C448.852 88.7467 447.274 91.3493 445.311 93.312C443.434 95.1893 441.172 96.128 438.527 96.128C436.735 96.128 434.943 95.9573 433.151 95.616C431.359 95.1893 429.482 94.6347 427.519 93.952C426.495 93.5253 425.514 93.4827 424.575 93.824C423.722 94.1653 422.655 94.9333 421.375 96.128C420.948 96.128 420.607 95.9147 420.351 95.488C420.095 95.0613 420.095 94.6347 420.351 94.208C422.228 92.3307 424.276 90.2827 426.495 88.064C428.799 85.8453 431.103 83.584 433.407 81.28C435.711 78.976 437.93 76.7573 440.063 74.624C442.282 72.4907 444.287 70.528 446.079 68.736C444.202 68.3093 442.111 67.968 439.807 67.712C437.503 67.456 435.54 67.328 433.919 67.328C431.444 67.328 429.738 68.6933 428.799 71.424C428.628 71.68 428.372 71.7227 428.031 71.552C427.69 71.3813 427.519 71.168 427.519 70.912C428.202 69.0347 429.268 67.328 430.719 65.792C432.17 64.1707 434.004 63.36 436.223 63.36C438.186 63.36 440.063 63.5733 441.855 64C443.647 64.3413 445.14 64.6827 446.335 65.024C447.274 65.1947 448.084 65.1947 448.767 65.024C449.45 64.768 450.132 64.3413 450.815 63.744C451.071 63.488 451.455 63.36 451.967 63.36C452.991 63.36 453.418 63.7013 453.247 64.384C448.639 68.8213 444.116 73.216 439.679 77.568C435.327 81.8347 431.274 85.888 427.519 89.728Z" fill="#FCCB06"/>
</svg>
